<svg version="1.1" viewBox="0.0 0.0 600.0 371.0" fill="none" stroke="none" stroke-linecap="square" stroke-miterlimit="10" width="600" height="371" xmlns:xlink="http://www.w3.org/1999/xlink" xmlns="http://www.w3.org/2000/svg"><path fill="#ffffff" d="M0 0L600.0 0L600.0 371.0L0 371.0L0 0Z" fill-rule="nonzero"/><path stroke="#333333" stroke-width="1.0" stroke-linecap="butt" d="M66.5 334.5L581.5 334.5" fill-rule="nonzero"/><path stroke="#cccccc" stroke-width="1.0" stroke-linecap="butt" d="M66.5 265.5L581.5 265.5" fill-rule="nonzero"/><path stroke="#cccccc" stroke-width="1.0" stroke-linecap="butt" d="M66.5 197.5L581.5 197.5" fill-rule="nonzero"/><path stroke="#cccccc" stroke-width="1.0" stroke-linecap="butt" d="M66.5 128.5L581.5 128.5" fill-rule="nonzero"/><path stroke="#cccccc" stroke-width="1.0" stroke-linecap="butt" d="M66.5 59.5L581.5 59.5" fill-rule="nonzero"/><clipPath id="id_0"><path d="M66.55 59.916668L581.45 59.916668L581.45 334.45L66.55 334.45L66.55 59.916668Z" clip-rule="nonzero"/></clipPath><path stroke="#000000" stroke-width="2.0" stroke-linecap="butt" stroke-opacity="0.0" clip-path="url(#id_0)" d="M185.0 334.0L108.0 334.0L108.0 62.0C108.0 60.89543 108.89543 60.0 110.0 60.0L183.0 60.0C184.10457 60.0 185.0 60.89543 185.0 62.0Z" fill-rule="nonzero"/><path fill="#4f81bd" clip-path="url(#id_0)" d="M185.0 334.0L108.0 334.0L108.0 62.0C108.0 60.89543 108.89543 60.0 110.0 60.0L183.0 60.0C184.10457 60.0 185.0 60.89543 185.0 62.0Z" fill-rule="nonzero"/><path stroke="#000000" stroke-width="2.0" stroke-linecap="butt" stroke-opacity="0.0" clip-path="url(#id_0)" d="M304.0 334.0L227.0 334.0L227.0 62.0C227.0 60.89543 227.89543 60.0 229.0 60.0L302.0 60.0C303.10458 60.0 304.0 60.89543 304.0 62.0Z" fill-rule="nonzero"/><path fill="#4f81bd" clip-path="url(#id_0)" d="M304.0 334.0L227.0 334.0L227.0 62.0C227.0 60.89543 227.89543 60.0 229.0 60.0L302.0 60.0C303.10458 60.0 304.0 60.89543 304.0 62.0Z" fill-rule="nonzero"/><path stroke="#000000" stroke-width="2.0" stroke-linecap="butt" stroke-opacity="0.0" clip-path="url(#id_0)" d="M422.0 334.0L345.0 334.0L345.0 221.0C345.0 219.89543 345.89542 219.0 347.0 219.0L420.0 219.0C421.10458 219.0 422.0 219.89543 422.0 221.0Z" fill-rule="nonzero"/><path fill="#4f81bd" clip-path="url(#id_0)" d="M422.0 334.0L345.0 334.0L345.0 221.0C345.0 219.89543 345.89542 219.0 347.0 219.0L420.0 219.0C421.10458 219.0 422.0 219.89543 422.0 221.0Z" fill-rule="nonzero"/><path stroke="#000000" stroke-width="2.0" stroke-linecap="butt" stroke-opacity="0.0" clip-path="url(#id_0)" d="M541.0 334.0L464.0 334.0L464.0 254.0C464.0 252.89543 464.89542 252.0 466.0 252.0L539.0 252.0C540.10455 252.0 541.0 252.89543 541.0 254.0Z" fill-rule="nonzero"/><path fill="#4f81bd" clip-path="url(#id_0)" d="M541.0 334.0L464.0 334.0L464.0 254.0C464.0 252.89543 464.89542 252.0 466.0 252.0L539.0 252.0C540.10455 252.0 541.0 252.89543 541.0 254.0Z" fill-rule="nonzero"/><path fill="#000000" d="M36.221874 333.6375Q36.221874 334.5125 36.08125 335.23126Q35.940624 335.95 35.6125 336.48126Q35.3 336.9969 34.784374 337.27814Q34.26875 337.5594 33.51875 337.5594Q32.8 337.5594 32.3 337.3094Q31.815624 337.04376 31.51875 336.5594Q31.221874 336.0594 31.096874 335.34064Q30.971874 334.60626 30.971874 333.66876Q30.971874 332.8094 31.1125 332.09064Q31.253124 331.35626 31.565624 330.84064Q31.89375 330.325 32.409374 330.04376Q32.925 329.7625 33.675 329.7625Q34.39375 329.7625 34.878124 330.0125Q35.3625 330.2625 35.659374 330.7625Q35.971874 331.2625 36.096874 331.98126Q36.221874 332.7 36.221874 333.6375ZM35.190624 333.71564Q35.190624 333.1375 35.14375 332.7Q35.096874 332.2469 35.01875 331.90314Q34.940624 331.54376 34.815624 331.29376Q34.690624 331.04376 34.51875 330.8875Q34.346874 330.73126 34.1125 330.65314Q33.89375 330.575 33.6125 330.575Q33.1125 330.575 32.8 330.8094Q32.4875 331.04376 32.3 331.46564Q32.128124 331.8719 32.065624 332.41876Q32.003124 332.96564 32.003124 333.60626Q32.003124 334.45 32.08125 335.04376Q32.175 335.6375 32.3625 336.0125Q32.565624 336.3875 32.8625 336.5594Q33.159374 336.73126 33.58125 336.73126Q33.909374 336.73126 34.14375 336.6375Q34.39375 336.52814 34.565624 336.34064Q34.753124 336.1375 34.8625 335.85626Q34.9875 335.575 35.05 335.2469Q35.128124 334.91876 35.159374 334.52814Q35.190624 334.1375 35.190624 333.71564ZM38.721874 336.60626Q38.721874 336.79376 38.70625 336.95Q38.690624 337.09064 38.64375 337.23126Q38.6125 337.3719 38.534374 337.4969Q38.471874 337.6375 38.378124 337.77814L37.565624 338.98126Q37.534374 339.02814 37.503124 339.0594Q37.471874 339.09064 37.409374 339.10626Q37.346874 339.1375 37.26875 339.1375Q37.20625 339.15314 37.096874 339.15314Q37.003124 339.15314 36.925 339.1375Q36.8625 339.1375 36.83125 339.10626Q36.8 339.09064 36.8 339.0594Q36.8 339.02814 36.815624 338.98126L37.596874 337.35626L37.596874 336.60626Q37.596874 336.45 37.628124 336.35626Q37.659374 336.2625 37.721874 336.21564Q37.8 336.16876 37.909374 336.15314Q38.01875 336.1375 38.175 336.1375Q38.315624 336.1375 38.409374 336.15314Q38.51875 336.16876 38.58125 336.21564Q38.659374 336.2625 38.690624 336.35626Q38.721874 336.45 38.721874 336.60626ZM45.221874 333.6375Q45.221874 334.5125 45.08125 335.23126Q44.940624 335.95 44.6125 336.48126Q44.3 336.9969 43.784374 337.27814Q43.26875 337.5594 42.51875 337.5594Q41.8 337.5594 41.3 337.3094Q40.815624 337.04376 40.51875 336.5594Q40.221874 336.0594 40.096874 335.34064Q39.971874 334.60626 39.971874 333.66876Q39.971874 332.8094 40.1125 332.09064Q40.253124 331.35626 40.565624 330.84064Q40.89375 330.325 41.409374 330.04376Q41.925 329.7625 42.675 329.7625Q43.39375 329.7625 43.878124 330.0125Q44.3625 330.2625 44.659374 330.7625Q44.971874 331.2625 45.096874 331.98126Q45.221874 332.7 45.221874 333.6375ZM44.190624 333.71564Q44.190624 333.1375 44.14375 332.7Q44.096874 332.2469 44.01875 331.90314Q43.940624 331.54376 43.815624 331.29376Q43.690624 331.04376 43.51875 330.8875Q43.346874 330.73126 43.1125 330.65314Q42.89375 330.575 42.6125 330.575Q42.1125 330.575 41.8 330.8094Q41.4875 331.04376 41.3 331.46564Q41.128124 331.8719 41.065624 332.41876Q41.003124 332.96564 41.003124 333.60626Q41.003124 334.45 41.08125 335.04376Q41.175 335.6375 41.3625 336.0125Q41.565624 336.3875 41.8625 336.5594Q42.159374 336.73126 42.58125 336.73126Q42.909374 336.73126 43.14375 336.6375Q43.39375 336.52814 43.565624 336.34064Q43.753124 336.1375 43.8625 335.85626Q43.9875 335.575 44.05 335.2469Q44.128124 334.91876 44.159374 334.52814Q44.190624 334.1375 44.190624 333.71564ZM51.221874 333.6375Q51.221874 334.5125 51.08125 335.23126Q50.940624 335.95 50.6125 336.48126Q50.3 336.9969 49.784374 337.27814Q49.26875 337.5594 48.51875 337.5594Q47.8 337.5594 47.3 337.3094Q46.815624 337.04376 46.51875 336.5594Q46.221874 336.0594 46.096874 335.34064Q45.971874 334.60626 45.971874 333.66876Q45.971874 332.8094 46.1125 332.09064Q46.253124 331.35626 46.565624 330.84064Q46.89375 330.325 47.409374 330.04376Q47.925 329.7625 48.675 329.7625Q49.39375 329.7625 49.878124 330.0125Q50.3625 330.2625 50.659374 330.7625Q50.971874 331.2625 51.096874 331.98126Q51.221874 332.7 51.221874 333.6375ZM50.190624 333.71564Q50.190624 333.1375 50.14375 332.7Q50.096874 332.2469 50.01875 331.90314Q49.940624 331.54376 49.815624 331.29376Q49.690624 331.04376 49.51875 330.8875Q49.346874 330.73126 49.1125 330.65314Q48.89375 330.575 48.6125 330.575Q48.1125 330.575 47.8 330.8094Q47.4875 331.04376 47.3 331.46564Q47.128124 331.8719 47.065624 332.41876Q47.003124 332.96564 47.003124 333.60626Q47.003124 334.45 47.08125 335.04376Q47.175 335.6375 47.3625 336.0125Q47.565624 336.3875 47.8625 336.5594Q48.159374 336.73126 48.58125 336.73126Q48.909374 336.73126 49.14375 336.6375Q49.39375 336.52814 49.565624 336.34064Q49.753124 336.1375 49.8625 335.85626Q49.9875 335.575 50.05 335.2469Q50.128124 334.91876 50.159374 334.52814Q50.190624 334.1375 50.190624 333.71564ZM55.2375 331.73126Q55.2375 332.1844 55.128124 332.5594Q55.034374 332.91876 54.83125 333.1844Q54.628124 333.45 54.315624 333.60626Q54.003124 333.7469 53.58125 333.7469Q53.14375 333.7469 52.83125 333.60626Q52.534374 333.46564 52.346874 333.21564Q52.159374 332.96564 52.065624 332.60626Q51.971874 332.23126 51.971874 331.7625Q51.971874 331.325 52.065624 330.96564Q52.159374 330.60626 52.3625 330.34064Q52.565624 330.075 52.878124 329.9344Q53.190624 329.77814 53.6125 329.77814Q54.08125 329.77814 54.39375 329.9344Q54.70625 330.09064 54.89375 330.35626Q55.08125 330.6219 55.159374 330.98126Q55.2375 331.34064 55.2375 331.73126ZM54.409374 331.7625Q54.409374 331.4344 54.3625 331.1844Q54.315624 330.9344 54.221874 330.7625Q54.128124 330.59064 53.971874 330.5125Q53.815624 330.41876 53.596874 330.41876Q53.39375 330.41876 53.2375 330.4969Q53.08125 330.575 52.9875 330.7469Q52.89375 330.90314 52.846874 331.15314Q52.8 331.40314 52.8 331.73126Q52.8 332.1219 52.846874 332.3875Q52.909374 332.65314 53.003124 332.8094Q53.1125 332.96564 53.26875 333.02814Q53.425 333.09064 53.628124 333.09064Q53.8625 333.09064 54.003124 333.0125Q54.159374 332.91876 54.253124 332.7469Q54.346874 332.575 54.378124 332.325Q54.409374 332.075 54.409374 331.7625ZM59.70625 335.52814Q59.70625 335.98126 59.596874 336.35626Q59.503124 336.71564 59.3 336.98126Q59.096874 337.2469 58.784374 337.40314Q58.471874 337.54376 58.05 337.54376Q57.6125 337.54376 57.3 337.40314Q57.003124 337.2625 56.815624 337.0125Q56.628124 336.7625 56.534374 336.40314Q56.440624 336.02814 56.440624 335.5594Q56.440624 335.1219 56.534374 334.7625Q56.628124 334.40314 56.83125 334.1375Q57.034374 333.8719 57.346874 333.73126Q57.659374 333.575 58.08125 333.575Q58.55 333.575 58.8625 333.73126Q59.175 333.8875 59.3625 334.15314Q59.55 334.41876 59.628124 334.77814Q59.70625 335.1375 59.70625 335.52814ZM58.878124 335.5594Q58.878124 335.23126 58.83125 334.98126Q58.784374 334.73126 58.690624 334.5594Q58.596874 334.3875 58.440624 334.3094Q58.284374 334.21564 58.065624 334.21564Q57.8625 334.21564 57.70625 334.29376Q57.55 334.3719 57.45625 334.54376Q57.3625 334.7 57.315624 334.95Q57.26875 335.2 57.26875 335.52814Q57.26875 335.91876 57.315624 336.1844Q57.378124 336.45 57.471874 336.60626Q57.58125 336.7625 57.7375 336.825Q57.89375 336.8875 58.096874 336.8875Q58.33125 336.8875 58.471874 336.8094Q58.628124 336.71564 58.721874 336.54376Q58.815624 336.3719 58.846874 336.1219Q58.878124 335.8719 58.878124 335.5594ZM53.58125 337.4969Q53.55 337.54376 53.503124 337.575Q53.471874 337.60626 53.409374 337.6219Q53.3625 337.6375 53.26875 337.65314Q53.190624 337.66876 53.08125 337.66876Q52.940624 337.66876 52.8625 337.6375Q52.784374 337.6219 52.753124 337.575Q52.721874 337.54376 52.721874 337.48126Q52.7375 337.41876 52.784374 337.35626L58.065624 329.8094Q58.096874 329.7625 58.128124 329.73126Q58.175 329.6844 58.2375 329.66876Q58.3 329.65314 58.378124 329.65314Q58.45625 329.6375 58.58125 329.6375Q58.70625 329.6375 58.784374 329.66876Q58.8625 329.6844 58.89375 329.73126Q58.925 329.7625 58.909374 329.825Q58.909374 329.8719 58.8625 329.95L53.58125 337.4969Z" fill-rule="nonzero"/><path fill="#000000" d="M29.971874 268.37918Q29.971874 268.48856 29.95625 268.56668Q29.940624 268.6448 29.909374 268.7073Q29.878124 268.7698 29.83125 268.80106Q29.8 268.81668 29.7375 268.81668L25.55 268.81668Q25.471874 268.81668 25.409374 268.80106Q25.346874 268.7698 25.3 268.72293Q25.253124 268.67606 25.2375 268.59793Q25.221874 268.50418 25.221874 268.37918Q25.221874 268.25418 25.221874 268.17606Q25.2375 268.0823 25.26875 268.0198Q25.3 267.94168 25.33125 267.87918Q25.378124 267.81668 25.45625 267.73856L26.925 266.17606Q27.440624 265.6448 27.7375 265.22293Q28.05 264.78543 28.20625 264.44168Q28.378124 264.0823 28.425 263.80106Q28.4875 263.50418 28.4875 263.25418Q28.4875 263.00418 28.409374 262.78543Q28.33125 262.55106 28.175 262.37918Q28.01875 262.2073 27.784374 262.11356Q27.55 262.0198 27.2375 262.0198Q26.878124 262.0198 26.596874 262.11356Q26.315624 262.2073 26.096874 262.3323Q25.89375 262.44168 25.7375 262.55106Q25.596874 262.6448 25.534374 262.6448Q25.4875 262.6448 25.45625 262.62918Q25.425 262.59793 25.39375 262.55106Q25.378124 262.48856 25.3625 262.41043Q25.3625 262.31668 25.3625 262.19168Q25.3625 262.11356 25.3625 262.05106Q25.378124 261.97293 25.378124 261.92606Q25.39375 261.87918 25.409374 261.84793Q25.440624 261.80106 25.503124 261.73856Q25.58125 261.67606 25.753124 261.5823Q25.940624 261.47293 26.190624 261.37918Q26.45625 261.2698 26.76875 261.2073Q27.08125 261.12918 27.425 261.12918Q27.971874 261.12918 28.378124 261.28543Q28.8 261.42606 29.065624 261.7073Q29.346874 261.97293 29.471874 262.3323Q29.6125 262.69168 29.6125 263.09793Q29.6125 263.4573 29.55 263.81668Q29.4875 264.17606 29.284374 264.59793Q29.08125 265.0198 28.675 265.53543Q28.284374 266.03543 27.64375 266.7073L26.440624 267.9573L29.7375 267.9573Q29.784374 267.9573 29.83125 267.98856Q29.878124 268.0198 29.909374 268.06668Q29.940624 268.11356 29.95625 268.19168Q29.971874 268.2698 29.971874 268.37918ZM35.925 266.37918Q35.925 266.98856 35.721874 267.47293Q35.51875 267.94168 35.14375 268.2698Q34.76875 268.5823 34.253124 268.75418Q33.7375 268.92606 33.096874 268.92606Q32.753124 268.92606 32.425 268.87918Q32.1125 268.8323 31.8625 268.75418Q31.628124 268.67606 31.45625 268.61356Q31.3 268.53543 31.253124 268.50418Q31.221874 268.4573 31.20625 268.42606Q31.190624 268.3948 31.175 268.34793Q31.159374 268.28543 31.14375 268.2073Q31.14375 268.12918 31.14375 268.03543Q31.14375 267.92606 31.14375 267.84793Q31.159374 267.7698 31.175 267.72293Q31.20625 267.67606 31.2375 267.66043Q31.26875 267.62918 31.315624 267.62918Q31.378124 267.62918 31.4875 267.7073Q31.6125 267.7698 31.815624 267.86356Q32.034374 267.94168 32.33125 268.0198Q32.64375 268.09793 33.065624 268.09793Q33.45625 268.09793 33.784374 268.00418Q34.1125 267.91043 34.346874 267.7073Q34.596874 267.50418 34.721874 267.2073Q34.8625 266.91043 34.8625 266.47293Q34.8625 266.11356 34.7375 265.8323Q34.628124 265.55106 34.39375 265.36356Q34.159374 265.17606 33.8 265.09793Q33.440624 265.00418 32.925 265.00418Q32.565624 265.00418 32.3 265.03543Q32.05 265.06668 31.83125 265.06668Q31.675 265.06668 31.596874 265.00418Q31.534374 264.92606 31.534374 264.7073L31.534374 261.61356Q31.534374 261.42606 31.6125 261.3323Q31.70625 261.23856 31.878124 261.23856L35.2375 261.23856Q35.284374 261.23856 35.33125 261.2698Q35.378124 261.28543 35.39375 261.34793Q35.425 261.3948 35.440624 261.47293Q35.45625 261.55106 35.45625 261.66043Q35.45625 261.87918 35.39375 262.00418Q35.346874 262.11356 35.2375 262.11356L32.409374 262.11356L32.409374 264.23856Q32.6125 264.2073 32.815624 264.2073Q33.034374 264.19168 33.315624 264.19168Q33.971874 264.19168 34.45625 264.34793Q34.940624 264.50418 35.26875 264.80106Q35.596874 265.0823 35.753124 265.48856Q35.925 265.87918 35.925 266.37918ZM38.721874 267.97293Q38.721874 268.16043 38.70625 268.31668Q38.690624 268.4573 38.64375 268.59793Q38.6125 268.73856 38.534374 268.86356Q38.471874 269.00418 38.378124 269.1448L37.565624 270.34793Q37.534374 270.3948 37.503124 270.42606Q37.471874 270.4573 37.409374 270.47293Q37.346874 270.50418 37.26875 270.50418Q37.20625 270.5198 37.096874 270.5198Q37.003124 270.5198 36.925 270.50418Q36.8625 270.50418 36.83125 270.47293Q36.8 270.4573 36.8 270.42606Q36.8 270.3948 36.815624 270.34793L37.596874 268.72293L37.596874 267.97293Q37.596874 267.81668 37.628124 267.72293Q37.659374 267.62918 37.721874 267.5823Q37.8 267.53543 37.909374 267.5198Q38.01875 267.50418 38.175 267.50418Q38.315624 267.50418 38.409374 267.5198Q38.51875 267.53543 38.58125 267.5823Q38.659374 267.62918 38.690624 267.72293Q38.721874 267.81668 38.721874 267.97293ZM45.221874 265.00418Q45.221874 265.87918 45.08125 266.59793Q44.940624 267.31668 44.6125 267.84793Q44.3 268.36356 43.784374 268.6448Q43.26875 268.92606 42.51875 268.92606Q41.8 268.92606 41.3 268.67606Q40.815624 268.41043 40.51875 267.92606Q40.221874 267.42606 40.096874 266.7073Q39.971874 265.97293 39.971874 265.03543Q39.971874 264.17606 40.1125 263.4573Q40.253124 262.72293 40.565624 262.2073Q40.89375 261.69168 41.409374 261.41043Q41.925 261.12918 42.675 261.12918Q43.39375 261.12918 43.878124 261.37918Q44.3625 261.62918 44.659374 262.12918Q44.971874 262.62918 45.096874 263.34793Q45.221874 264.06668 45.221874 265.00418ZM44.190624 265.0823Q44.190624 264.50418 44.14375 264.06668Q44.096874 263.61356 44.01875 263.2698Q43.940624 262.91043 43.815624 262.66043Q43.690624 262.41043 43.51875 262.25418Q43.346874 262.09793 43.1125 262.0198Q42.89375 261.94168 42.6125 261.94168Q42.1125 261.94168 41.8 262.17606Q41.4875 262.41043 41.3 262.8323Q41.128124 263.23856 41.065624 263.78543Q41.003124 264.3323 41.003124 264.97293Q41.003124 265.81668 41.08125 266.41043Q41.175 267.00418 41.3625 267.37918Q41.565624 267.75418 41.8625 267.92606Q42.159374 268.09793 42.58125 268.09793Q42.909374 268.09793 43.14375 268.00418Q43.39375 267.8948 43.565624 267.7073Q43.753124 267.50418 43.8625 267.22293Q43.9875 266.94168 44.05 266.61356Q44.128124 266.28543 44.159374 265.8948Q44.190624 265.50418 44.190624 265.0823ZM51.221874 265.00418Q51.221874 265.87918 51.08125 266.59793Q50.940624 267.31668 50.6125 267.84793Q50.3 268.36356 49.784374 268.6448Q49.26875 268.92606 48.51875 268.92606Q47.8 268.92606 47.3 268.67606Q46.815624 268.41043 46.51875 267.92606Q46.221874 267.42606 46.096874 266.7073Q45.971874 265.97293 45.971874 265.03543Q45.971874 264.17606 46.1125 263.4573Q46.253124 262.72293 46.565624 262.2073Q46.89375 261.69168 47.409374 261.41043Q47.925 261.12918 48.675 261.12918Q49.39375 261.12918 49.878124 261.37918Q50.3625 261.62918 50.659374 262.12918Q50.971874 262.62918 51.096874 263.34793Q51.221874 264.06668 51.221874 265.00418ZM50.190624 265.0823Q50.190624 264.50418 50.14375 264.06668Q50.096874 263.61356 50.01875 263.2698Q49.940624 262.91043 49.815624 262.66043Q49.690624 262.41043 49.51875 262.25418Q49.346874 262.09793 49.1125 262.0198Q48.89375 261.94168 48.6125 261.94168Q48.1125 261.94168 47.8 262.17606Q47.4875 262.41043 47.3 262.8323Q47.128124 263.23856 47.065624 263.78543Q47.003124 264.3323 47.003124 264.97293Q47.003124 265.81668 47.08125 266.41043Q47.175 267.00418 47.3625 267.37918Q47.565624 267.75418 47.8625 267.92606Q48.159374 268.09793 48.58125 268.09793Q48.909374 268.09793 49.14375 268.00418Q49.39375 267.8948 49.565624 267.7073Q49.753124 267.50418 49.8625 267.22293Q49.9875 266.94168 50.05 266.61356Q50.128124 266.28543 50.159374 265.8948Q50.190624 265.50418 50.190624 265.0823ZM55.2375 263.09793Q55.2375 263.55106 55.128124 263.92606Q55.034374 264.28543 54.83125 264.55106Q54.628124 264.81668 54.315624 264.97293Q54.003124 265.11356 53.58125 265.11356Q53.14375 265.11356 52.83125 264.97293Q52.534374 264.8323 52.346874 264.5823Q52.159374 264.3323 52.065624 263.97293Q51.971874 263.59793 51.971874 263.12918Q51.971874 262.69168 52.065624 262.3323Q52.159374 261.97293 52.3625 261.7073Q52.565624 261.44168 52.878124 261.30106Q53.190624 261.1448 53.6125 261.1448Q54.08125 261.1448 54.39375 261.30106Q54.70625 261.4573 54.89375 261.72293Q55.08125 261.98856 55.159374 262.34793Q55.2375 262.7073 55.2375 263.09793ZM54.409374 263.12918Q54.409374 262.80106 54.3625 262.55106Q54.315624 262.30106 54.221874 262.12918Q54.128124 261.9573 53.971874 261.87918Q53.815624 261.78543 53.596874 261.78543Q53.39375 261.78543 53.2375 261.86356Q53.08125 261.94168 52.9875 262.11356Q52.89375 262.2698 52.846874 262.5198Q52.8 262.7698 52.8 263.09793Q52.8 263.48856 52.846874 263.75418Q52.909374 264.0198 53.003124 264.17606Q53.1125 264.3323 53.26875 264.3948Q53.425 264.4573 53.628124 264.4573Q53.8625 264.4573 54.003124 264.37918Q54.159374 264.28543 54.253124 264.11356Q54.346874 263.94168 54.378124 263.69168Q54.409374 263.44168 54.409374 263.12918ZM59.70625 266.8948Q59.70625 267.34793 59.596874 267.72293Q59.503124 268.0823 59.3 268.34793Q59.096874 268.61356 58.784374 268.7698Q58.471874 268.91043 58.05 268.91043Q57.6125 268.91043 57.3 268.7698Q57.003124 268.62918 56.815624 268.37918Q56.628124 268.12918 56.534374 267.7698Q56.440624 267.3948 56.440624 266.92606Q56.440624 266.48856 56.534374 266.12918Q56.628124 265.7698 56.83125 265.50418Q57.034374 265.23856 57.346874 265.09793Q57.659374 264.94168 58.08125 264.94168Q58.55 264.94168 58.8625 265.09793Q59.175 265.25418 59.3625 265.5198Q59.55 265.78543 59.628124 266.1448Q59.70625 266.50418 59.70625 266.8948ZM58.878124 266.92606Q58.878124 266.59793 58.83125 266.34793Q58.784374 266.09793 58.690624 265.92606Q58.596874 265.75418 58.440624 265.67606Q58.284374 265.5823 58.065624 265.5823Q57.8625 265.5823 57.70625 265.66043Q57.55 265.73856 57.45625 265.91043Q57.3625 266.06668 57.315624 266.31668Q57.26875 266.56668 57.26875 266.8948Q57.26875 267.28543 57.315624 267.55106Q57.378124 267.81668 57.471874 267.97293Q57.58125 268.12918 57.7375 268.19168Q57.89375 268.25418 58.096874 268.25418Q58.33125 268.25418 58.471874 268.17606Q58.628124 268.0823 58.721874 267.91043Q58.815624 267.73856 58.846874 267.48856Q58.878124 267.23856 58.878124 266.92606ZM53.58125 268.86356Q53.55 268.91043 53.503124 268.94168Q53.471874 268.97293 53.409374 268.98856Q53.3625 269.00418 53.26875 269.0198Q53.190624 269.03543 53.08125 269.03543Q52.940624 269.03543 52.8625 269.00418Q52.784374 268.98856 52.753124 268.94168Q52.721874 268.91043 52.721874 268.84793Q52.7375 268.78543 52.784374 268.72293L58.065624 261.17606Q58.096874 261.12918 58.128124 261.09793Q58.175 261.05106 58.2375 261.03543Q58.3 261.0198 58.378124 261.0198Q58.45625 261.00418 58.58125 261.00418Q58.70625 261.00418 58.784374 261.03543Q58.8625 261.05106 58.89375 261.09793Q58.925 261.12918 58.909374 261.19168Q58.909374 261.23856 58.8625 261.31668L53.58125 268.86356Z" fill-rule="nonzero"/><path fill="#000000" d="M29.925 197.74583Q29.925 198.35521 29.721874 198.83958Q29.51875 199.30833 29.14375 199.63646Q28.76875 199.94896 28.253124 200.12083Q27.7375 200.29271 27.096874 200.29271Q26.753124 200.29271 26.425 200.24583Q26.1125 200.19896 25.8625 200.12083Q25.628124 200.04271 25.45625 199.98021Q25.3 199.90208 25.253124 199.87083Q25.221874 199.82396 25.20625 199.79271Q25.190624 199.76146 25.175 199.71458Q25.159374 199.65208 25.14375 199.57396Q25.14375 199.49583 25.14375 199.40208Q25.14375 199.29271 25.14375 199.21458Q25.159374 199.13646 25.175 199.08958Q25.20625 199.04271 25.2375 199.02708Q25.26875 198.99583 25.315624 198.99583Q25.378124 198.99583 25.4875 199.07396Q25.6125 199.13646 25.815624 199.23021Q26.034374 199.30833 26.33125 199.38646Q26.64375 199.46458 27.065624 199.46458Q27.45625 199.46458 27.784374 199.37083Q28.1125 199.27708 28.346874 199.07396Q28.596874 198.87083 28.721874 198.57396Q28.8625 198.27708 28.8625 197.83958Q28.8625 197.48021 28.7375 197.19896Q28.628124 196.91771 28.39375 196.73021Q28.159374 196.54271 27.8 196.46458Q27.440624 196.37083 26.925 196.37083Q26.565624 196.37083 26.3 196.40208Q26.05 196.43333 25.83125 196.43333Q25.675 196.43333 25.596874 196.37083Q25.534374 196.29271 25.534374 196.07396L25.534374 192.98021Q25.534374 192.79271 25.6125 192.69896Q25.70625 192.60521 25.878124 192.60521L29.2375 192.60521Q29.284374 192.60521 29.33125 192.63646Q29.378124 192.65208 29.39375 192.71458Q29.425 192.76146 29.440624 192.83958Q29.45625 192.91771 29.45625 193.02708Q29.45625 193.24583 29.39375 193.37083Q29.346874 193.48021 29.2375 193.48021L26.409374 193.48021L26.409374 195.60521Q26.6125 195.57396 26.815624 195.57396Q27.034374 195.55833 27.315624 195.55833Q27.971874 195.55833 28.45625 195.71458Q28.940624 195.87083 29.26875 196.16771Q29.596874 196.44896 29.753124 196.85521Q29.925 197.24583 29.925 197.74583ZM36.221874 196.37083Q36.221874 197.24583 36.08125 197.96458Q35.940624 198.68333 35.6125 199.21458Q35.3 199.73021 34.784374 200.01146Q34.26875 200.29271 33.51875 200.29271Q32.8 200.29271 32.3 200.04271Q31.815624 199.77708 31.51875 199.29271Q31.221874 198.79271 31.096874 198.07396Q30.971874 197.33958 30.971874 196.40208Q30.971874 195.54271 31.1125 194.82396Q31.253124 194.08958 31.565624 193.57396Q31.89375 193.05833 32.409374 192.77708Q32.925 192.49583 33.675 192.49583Q34.39375 192.49583 34.878124 192.74583Q35.3625 192.99583 35.659374 193.49583Q35.971874 193.99583 36.096874 194.71458Q36.221874 195.43333 36.221874 196.37083ZM35.190624 196.44896Q35.190624 195.87083 35.14375 195.43333Q35.096874 194.98021 35.01875 194.63646Q34.940624 194.27708 34.815624 194.02708Q34.690624 193.77708 34.51875 193.62083Q34.346874 193.46458 34.1125 193.38646Q33.89375 193.30833 33.6125 193.30833Q33.1125 193.30833 32.8 193.54271Q32.4875 193.77708 32.3 194.19896Q32.128124 194.60521 32.065624 195.15208Q32.003124 195.69896 32.003124 196.33958Q32.003124 197.18333 32.08125 197.77708Q32.175 198.37083 32.3625 198.74583Q32.565624 199.12083 32.8625 199.29271Q33.159374 199.46458 33.58125 199.46458Q33.909374 199.46458 34.14375 199.37083Q34.39375 199.26146 34.565624 199.07396Q34.753124 198.87083 34.8625 198.58958Q34.9875 198.30833 35.05 197.98021Q35.128124 197.65208 35.159374 197.26146Q35.190624 196.87083 35.190624 196.44896ZM38.721874 199.33958Q38.721874 199.52708 38.70625 199.68333Q38.690624 199.82396 38.64375 199.96458Q38.6125 200.10521 38.534374 200.23021Q38.471874 200.37083 38.378124 200.51146L37.565624 201.71458Q37.534374 201.76146 37.503124 201.79271Q37.471874 201.82396 37.409374 201.83958Q37.346874 201.87083 37.26875 201.87083Q37.20625 201.88646 37.096874 201.88646Q37.003124 201.88646 36.925 201.87083Q36.8625 201.87083 36.83125 201.83958Q36.8 201.82396 36.8 201.79271Q36.8 201.76146 36.815624 201.71458L37.596874 200.08958L37.596874 199.33958Q37.596874 199.18333 37.628124 199.08958Q37.659374 198.99583 37.721874 198.94896Q37.8 198.90208 37.909374 198.88646Q38.01875 198.87083 38.175 198.87083Q38.315624 198.87083 38.409374 198.88646Q38.51875 198.90208 38.58125 198.94896Q38.659374 198.99583 38.690624 199.08958Q38.721874 199.18333 38.721874 199.33958ZM45.221874 196.37083Q45.221874 197.24583 45.08125 197.96458Q44.940624 198.68333 44.6125 199.21458Q44.3 199.73021 43.784374 200.01146Q43.26875 200.29271 42.51875 200.29271Q41.8 200.29271 41.3 200.04271Q40.815624 199.77708 40.51875 199.29271Q40.221874 198.79271 40.096874 198.07396Q39.971874 197.33958 39.971874 196.40208Q39.971874 195.54271 40.1125 194.82396Q40.253124 194.08958 40.565624 193.57396Q40.89375 193.05833 41.409374 192.77708Q41.925 192.49583 42.675 192.49583Q43.39375 192.49583 43.878124 192.74583Q44.3625 192.99583 44.659374 193.49583Q44.971874 193.99583 45.096874 194.71458Q45.221874 195.43333 45.221874 196.37083ZM44.190624 196.44896Q44.190624 195.87083 44.14375 195.43333Q44.096874 194.98021 44.01875 194.63646Q43.940624 194.27708 43.815624 194.02708Q43.690624 193.77708 43.51875 193.62083Q43.346874 193.46458 43.1125 193.38646Q42.89375 193.30833 42.6125 193.30833Q42.1125 193.30833 41.8 193.54271Q41.4875 193.77708 41.3 194.19896Q41.128124 194.60521 41.065624 195.15208Q41.003124 195.69896 41.003124 196.33958Q41.003124 197.18333 41.08125 197.77708Q41.175 198.37083 41.3625 198.74583Q41.565624 199.12083 41.8625 199.29271Q42.159374 199.46458 42.58125 199.46458Q42.909374 199.46458 43.14375 199.37083Q43.39375 199.26146 43.565624 199.07396Q43.753124 198.87083 43.8625 198.58958Q43.9875 198.30833 44.05 197.98021Q44.128124 197.65208 44.159374 197.26146Q44.190624 196.87083 44.190624 196.44896ZM51.221874 196.37083Q51.221874 197.24583 51.08125 197.96458Q50.940624 198.68333 50.6125 199.21458Q50.3 199.73021 49.784374 200.01146Q49.26875 200.29271 48.51875 200.29271Q47.8 200.29271 47.3 200.04271Q46.815624 199.77708 46.51875 199.29271Q46.221874 198.79271 46.096874 198.07396Q45.971874 197.33958 45.971874 196.40208Q45.971874 195.54271 46.1125 194.82396Q46.253124 194.08958 46.565624 193.57396Q46.89375 193.05833 47.409374 192.77708Q47.925 192.49583 48.675 192.49583Q49.39375 192.49583 49.878124 192.74583Q50.3625 192.99583 50.659374 193.49583Q50.971874 193.99583 51.096874 194.71458Q51.221874 195.43333 51.221874 196.37083ZM50.190624 196.44896Q50.190624 195.87083 50.14375 195.43333Q50.096874 194.98021 50.01875 194.63646Q49.940624 194.27708 49.815624 194.02708Q49.690624 193.77708 49.51875 193.62083Q49.346874 193.46458 49.1125 193.38646Q48.89375 193.30833 48.6125 193.30833Q48.1125 193.30833 47.8 193.54271Q47.4875 193.77708 47.3 194.19896Q47.128124 194.60521 47.065624 195.15208Q47.003124 195.69896 47.003124 196.33958Q47.003124 197.18333 47.08125 197.77708Q47.175 198.37083 47.3625 198.74583Q47.565624 199.12083 47.8625 199.29271Q48.159374 199.46458 48.58125 199.46458Q48.909374 199.46458 49.14375 199.37083Q49.39375 199.26146 49.565624 199.07396Q49.753124 198.87083 49.8625 198.58958Q49.9875 198.30833 50.05 197.98021Q50.128124 197.65208 50.159374 197.26146Q50.190624 196.87083 50.190624 196.44896ZM55.2375 194.46458Q55.2375 194.91771 55.128124 195.29271Q55.034374 195.65208 54.83125 195.91771Q54.628124 196.18333 54.315624 196.33958Q54.003124 196.48021 53.58125 196.48021Q53.14375 196.48021 52.83125 196.33958Q52.534374 196.19896 52.346874 195.94896Q52.159374 195.69896 52.065624 195.33958Q51.971874 194.96458 51.971874 194.49583Q51.971874 194.05833 52.065624 193.69896Q52.159374 193.33958 52.3625 193.07396Q52.565624 192.80833 52.878124 192.66771Q53.190624 192.51146 53.6125 192.51146Q54.08125 192.51146 54.39375 192.66771Q54.70625 192.82396 54.89375 193.08958Q55.08125 193.35521 55.159374 193.71458Q55.2375 194.07396 55.2375 194.46458ZM54.409374 194.49583Q54.409374 194.16771 54.3625 193.91771Q54.315624 193.66771 54.221874 193.49583Q54.128124 193.32396 53.971874 193.24583Q53.815624 193.15208 53.596874 193.15208Q53.39375 193.15208 53.2375 193.23021Q53.08125 193.30833 52.9875 193.48021Q52.89375 193.63646 52.846874 193.88646Q52.8 194.13646 52.8 194.46458Q52.8 194.85521 52.846874 195.12083Q52.909374 195.38646 53.003124 195.54271Q53.1125 195.69896 53.26875 195.76146Q53.425 195.82396 53.628124 195.82396Q53.8625 195.82396 54.003124 195.74583Q54.159374 195.65208 54.253124 195.48021Q54.346874 195.30833 54.378124 195.05833Q54.409374 194.80833 54.409374 194.49583ZM59.70625 198.26146Q59.70625 198.71458 59.596874 199.08958Q59.503124 199.44896 59.3 199.71458Q59.096874 199.98021 58.784374 200.13646Q58.471874 200.27708 58.05 200.27708Q57.6125 200.27708 57.3 200.13646Q57.003124 199.99583 56.815624 199.74583Q56.628124 199.49583 56.534374 199.13646Q56.440624 198.76146 56.440624 198.29271Q56.440624 197.85521 56.534374 197.49583Q56.628124 197.13646 56.83125 196.87083Q57.034374 196.60521 57.346874 196.46458Q57.659374 196.30833 58.08125 196.30833Q58.55 196.30833 58.8625 196.46458Q59.175 196.62083 59.3625 196.88646Q59.55 197.15208 59.628124 197.51146Q59.70625 197.87083 59.70625 198.26146ZM58.878124 198.29271Q58.878124 197.96458 58.83125 197.71458Q58.784374 197.46458 58.690624 197.29271Q58.596874 197.12083 58.440624 197.04271Q58.284374 196.94896 58.065624 196.94896Q57.8625 196.94896 57.70625 197.02708Q57.55 197.10521 57.45625 197.27708Q57.3625 197.43333 57.315624 197.68333Q57.26875 197.93333 57.26875 198.26146Q57.26875 198.65208 57.315624 198.91771Q57.378124 199.18333 57.471874 199.33958Q57.58125 199.49583 57.7375 199.55833Q57.89375 199.62083 58.096874 199.62083Q58.33125 199.62083 58.471874 199.54271Q58.628124 199.44896 58.721874 199.27708Q58.815624 199.10521 58.846874 198.85521Q58.878124 198.60521 58.878124 198.29271ZM53.58125 200.23021Q53.55 200.27708 53.503124 200.30833Q53.471874 200.33958 53.409374 200.35521Q53.3625 200.37083 53.26875 200.38646Q53.190624 200.40208 53.08125 200.40208Q52.940624 200.40208 52.8625 200.37083Q52.784374 200.35521 52.753124 200.30833Q52.721874 200.27708 52.721874 200.21458Q52.7375 200.15208 52.784374 200.08958L58.065624 192.54271Q58.096874 192.49583 58.128124 192.46458Q58.175 192.41771 58.2375 192.40208Q58.3 192.38646 58.378124 192.38646Q58.45625 192.37083 58.58125 192.37083Q58.70625 192.37083 58.784374 192.40208Q58.8625 192.41771 58.89375 192.46458Q58.925 192.49583 58.909374 192.55833Q58.909374 192.60521 58.8625 192.68333L53.58125 200.23021Z" fill-rule="nonzero"/><path fill="#000000" d="M30.08125 124.39375Q30.08125 124.50313 30.065624 124.59688Q30.065624 124.675 30.05 124.75313Q30.034374 124.83125 30.003124 124.90938Q29.971874 124.9875 29.940624 125.06563L27.20625 131.3625Q27.175 131.425 27.128124 131.47188Q27.096874 131.51875 27.01875 131.55Q26.95625 131.56563 26.846874 131.56563Q26.753124 131.58125 26.596874 131.58125Q26.39375 131.58125 26.284374 131.56563Q26.175 131.55 26.128124 131.51875Q26.08125 131.47188 26.08125 131.425Q26.08125 131.3625 26.128124 131.28438L28.9875 124.84688L25.346874 124.84688Q25.2375 124.84688 25.175 124.7375Q25.128124 124.6125 25.128124 124.40938Q25.128124 124.3 25.14375 124.22188Q25.159374 124.12813 25.190624 124.08125Q25.221874 124.01875 25.253124 124.00313Q25.3 123.97188 25.346874 123.97188L29.76875 123.97188Q29.846874 123.97188 29.909374 123.9875Q29.971874 124.00313 30.003124 124.06563Q30.034374 124.1125 30.05 124.19063Q30.08125 124.26875 30.08125 124.39375ZM35.925 129.1125Q35.925 129.72188 35.721874 130.20625Q35.51875 130.675 35.14375 131.00313Q34.76875 131.31563 34.253124 131.4875Q33.7375 131.65938 33.096874 131.65938Q32.753124 131.65938 32.425 131.6125Q32.1125 131.56563 31.8625 131.4875Q31.628124 131.40938 31.45625 131.34688Q31.3 131.26875 31.253124 131.2375Q31.221874 131.19063 31.20625 131.15938Q31.190624 131.12813 31.175 131.08125Q31.159374 131.01875 31.14375 130.94063Q31.14375 130.8625 31.14375 130.76875Q31.14375 130.65938 31.14375 130.58125Q31.159374 130.50313 31.175 130.45625Q31.20625 130.40938 31.2375 130.39375Q31.26875 130.3625 31.315624 130.3625Q31.378124 130.3625 31.4875 130.44063Q31.6125 130.50313 31.815624 130.59688Q32.034374 130.675 32.33125 130.75313Q32.64375 130.83125 33.065624 130.83125Q33.45625 130.83125 33.784374 130.7375Q34.1125 130.64375 34.346874 130.44063Q34.596874 130.2375 34.721874 129.94063Q34.8625 129.64375 34.8625 129.20625Q34.8625 128.84688 34.7375 128.56563Q34.628124 128.28438 34.39375 128.09688Q34.159374 127.90938 33.8 127.83125Q33.440624 127.7375 32.925 127.7375Q32.565624 127.7375 32.3 127.76875Q32.05 127.8 31.83125 127.8Q31.675 127.8 31.596874 127.7375Q31.534374 127.65938 31.534374 127.44063L31.534374 124.34688Q31.534374 124.15938 31.6125 124.06563Q31.70625 123.97188 31.878124 123.97188L35.2375 123.97188Q35.284374 123.97188 35.33125 124.00313Q35.378124 124.01875 35.39375 124.08125Q35.425 124.12813 35.440624 124.20625Q35.45625 124.28438 35.45625 124.39375Q35.45625 124.6125 35.39375 124.7375Q35.346874 124.84688 35.2375 124.84688L32.409374 124.84688L32.409374 126.97188Q32.6125 126.94063 32.815624 126.94063Q33.034374 126.925 33.315624 126.925Q33.971874 126.925 34.45625 127.08125Q34.940624 127.2375 35.26875 127.53438Q35.596874 127.81563 35.753124 128.22188Q35.925 128.6125 35.925 129.1125ZM38.721874 130.70625Q38.721874 130.89375 38.70625 131.05Q38.690624 131.19063 38.64375 131.33125Q38.6125 131.47188 38.534374 131.59688Q38.471874 131.7375 38.378124 131.87813L37.565624 133.08125Q37.534374 133.12813 37.503124 133.15938Q37.471874 133.19063 37.409374 133.20625Q37.346874 133.2375 37.26875 133.2375Q37.20625 133.25313 37.096874 133.25313Q37.003124 133.25313 36.925 133.2375Q36.8625 133.2375 36.83125 133.20625Q36.8 133.19063 36.8 133.15938Q36.8 133.12813 36.815624 133.08125L37.596874 131.45625L37.596874 130.70625Q37.596874 130.55 37.628124 130.45625Q37.659374 130.3625 37.721874 130.31563Q37.8 130.26875 37.909374 130.25313Q38.01875 130.2375 38.175 130.2375Q38.315624 130.2375 38.409374 130.25313Q38.51875 130.26875 38.58125 130.31563Q38.659374 130.3625 38.690624 130.45625Q38.721874 130.55 38.721874 130.70625ZM45.221874 127.7375Q45.221874 128.6125 45.08125 129.33125Q44.940624 130.05 44.6125 130.58125Q44.3 131.09688 43.784374 131.37813Q43.26875 131.65938 42.51875 131.65938Q41.8 131.65938 41.3 131.40938Q40.815624 131.14375 40.51875 130.65938Q40.221874 130.15938 40.096874 129.44063Q39.971874 128.70625 39.971874 127.76875Q39.971874 126.90938 40.1125 126.19063Q40.253124 125.45625 40.565624 124.94063Q40.89375 124.425 41.409374 124.14375Q41.925 123.8625 42.675 123.8625Q43.39375 123.8625 43.878124 124.1125Q44.3625 124.3625 44.659374 124.8625Q44.971874 125.3625 45.096874 126.08125Q45.221874 126.8 45.221874 127.7375ZM44.190624 127.81563Q44.190624 127.2375 44.14375 126.8Q44.096874 126.34688 44.01875 126.00313Q43.940624 125.64375 43.815624 125.39375Q43.690624 125.14375 43.51875 124.9875Q43.346874 124.83125 43.1125 124.75313Q42.89375 124.675 42.6125 124.675Q42.1125 124.675 41.8 124.90938Q41.4875 125.14375 41.3 125.56563Q41.128124 125.97188 41.065624 126.51875Q41.003124 127.06563 41.003124 127.70625Q41.003124 128.55 41.08125 129.14375Q41.175 129.7375 41.3625 130.1125Q41.565624 130.4875 41.8625 130.65938Q42.159374 130.83125 42.58125 130.83125Q42.909374 130.83125 43.14375 130.7375Q43.39375 130.62813 43.565624 130.44063Q43.753124 130.2375 43.8625 129.95625Q43.9875 129.675 44.05 129.34688Q44.128124 129.01875 44.159374 128.62813Q44.190624 128.2375 44.190624 127.81563ZM51.221874 127.7375Q51.221874 128.6125 51.08125 129.33125Q50.940624 130.05 50.6125 130.58125Q50.3 131.09688 49.784374 131.37813Q49.26875 131.65938 48.51875 131.65938Q47.8 131.65938 47.3 131.40938Q46.815624 131.14375 46.51875 130.65938Q46.221874 130.15938 46.096874 129.44063Q45.971874 128.70625 45.971874 127.76875Q45.971874 126.90938 46.1125 126.19063Q46.253124 125.45625 46.565624 124.94063Q46.89375 124.425 47.409374 124.14375Q47.925 123.8625 48.675 123.8625Q49.39375 123.8625 49.878124 124.1125Q50.3625 124.3625 50.659374 124.8625Q50.971874 125.3625 51.096874 126.08125Q51.221874 126.8 51.221874 127.7375ZM50.190624 127.81563Q50.190624 127.2375 50.14375 126.8Q50.096874 126.34688 50.01875 126.00313Q49.940624 125.64375 49.815624 125.39375Q49.690624 125.14375 49.51875 124.9875Q49.346874 124.83125 49.1125 124.75313Q48.89375 124.675 48.6125 124.675Q48.1125 124.675 47.8 124.90938Q47.4875 125.14375 47.3 125.56563Q47.128124 125.97188 47.065624 126.51875Q47.003124 127.06563 47.003124 127.70625Q47.003124 128.55 47.08125 129.14375Q47.175 129.7375 47.3625 130.1125Q47.565624 130.4875 47.8625 130.65938Q48.159374 130.83125 48.58125 130.83125Q48.909374 130.83125 49.14375 130.7375Q49.39375 130.62813 49.565624 130.44063Q49.753124 130.2375 49.8625 129.95625Q49.9875 129.675 50.05 129.34688Q50.128124 129.01875 50.159374 128.62813Q50.190624 128.2375 50.190624 127.81563ZM55.2375 125.83125Q55.2375 126.28438 55.128124 126.65938Q55.034374 127.01875 54.83125 127.28438Q54.628124 127.55 54.315624 127.70625Q54.003124 127.84688 53.58125 127.84688Q53.14375 127.84688 52.83125 127.70625Q52.534374 127.56563 52.346874 127.31563Q52.159374 127.06563 52.065624 126.70625Q51.971874 126.33125 51.971874 125.8625Q51.971874 125.425 52.065624 125.06563Q52.159374 124.70625 52.3625 124.44063Q52.565624 124.175 52.878124 124.03438Q53.190624 123.87813 53.6125 123.87813Q54.08125 123.87813 54.39375 124.03438Q54.70625 124.19063 54.89375 124.45625Q55.08125 124.72188 55.159374 125.08125Q55.2375 125.44063 55.2375 125.83125ZM54.409374 125.8625Q54.409374 125.53438 54.3625 125.28438Q54.315624 125.03438 54.221874 124.8625Q54.128124 124.69063 53.971874 124.6125Q53.815624 124.51875 53.596874 124.51875Q53.39375 124.51875 53.2375 124.59688Q53.08125 124.675 52.9875 124.84688Q52.89375 125.00313 52.846874 125.25313Q52.8 125.50313 52.8 125.83125Q52.8 126.22188 52.846874 126.4875Q52.909374 126.75313 53.003124 126.90938Q53.1125 127.06563 53.26875 127.12813Q53.425 127.19063 53.628124 127.19063Q53.8625 127.19063 54.003124 127.1125Q54.159374 127.01875 54.253124 126.84688Q54.346874 126.675 54.378124 126.425Q54.409374 126.175 54.409374 125.8625ZM59.70625 129.62813Q59.70625 130.08125 59.596874 130.45625Q59.503124 130.81563 59.3 131.08125Q59.096874 131.34688 58.784374 131.50313Q58.471874 131.64375 58.05 131.64375Q57.6125 131.64375 57.3 131.50313Q57.003124 131.3625 56.815624 131.1125Q56.628124 130.8625 56.534374 130.50313Q56.440624 130.12813 56.440624 129.65938Q56.440624 129.22188 56.534374 128.8625Q56.628124 128.50313 56.83125 128.2375Q57.034374 127.97188 57.346874 127.83125Q57.659374 127.675 58.08125 127.675Q58.55 127.675 58.8625 127.83125Q59.175 127.9875 59.3625 128.25313Q59.55 128.51875 59.628124 128.87813Q59.70625 129.2375 59.70625 129.62813ZM58.878124 129.65938Q58.878124 129.33125 58.83125 129.08125Q58.784374 128.83125 58.690624 128.65938Q58.596874 128.4875 58.440624 128.40938Q58.284374 128.31563 58.065624 128.31563Q57.8625 128.31563 57.70625 128.39375Q57.55 128.47188 57.45625 128.64375Q57.3625 128.8 57.315624 129.05Q57.26875 129.3 57.26875 129.62813Q57.26875 130.01875 57.315624 130.28438Q57.378124 130.55 57.471874 130.70625Q57.58125 130.8625 57.7375 130.925Q57.89375 130.9875 58.096874 130.9875Q58.33125 130.9875 58.471874 130.90938Q58.628124 130.81563 58.721874 130.64375Q58.815624 130.47188 58.846874 130.22188Q58.878124 129.97188 58.878124 129.65938ZM53.58125 131.59688Q53.55 131.64375 53.503124 131.675Q53.471874 131.70625 53.409374 131.72188Q53.3625 131.7375 53.26875 131.75313Q53.190624 131.76875 53.08125 131.76875Q52.940624 131.76875 52.8625 131.7375Q52.784374 131.72188 52.753124 131.675Q52.721874 131.64375 52.721874 131.58125Q52.7375 131.51875 52.784374 131.45625L58.065624 123.90938Q58.096874 123.8625 58.128124 123.83125Q58.175 123.78438 58.2375 123.76875Q58.3 123.75313 58.378124 123.75313Q58.45625 123.7375 58.58125 123.7375Q58.70625 123.7375 58.784374 123.76875Q58.8625 123.78438 58.89375 123.83125Q58.925 123.8625 58.909374 123.925Q58.909374 123.97188 58.8625 124.05L53.58125 131.59688Z" fill-rule="nonzero"/><path fill="#000000" d="M23.9875 62.510418Q23.9875 62.635418 23.95625 62.713543Q23.940624 62.776043 23.909374 62.822918Q23.89375 62.869793 23.846874 62.901043Q23.815624 62.916668 23.76875 62.916668L19.815624 62.916668Q19.76875 62.916668 19.7375 62.901043Q19.70625 62.869793 19.659374 62.822918Q19.628124 62.776043 19.6125 62.713543Q19.596874 62.635418 19.596874 62.510418Q19.596874 62.416668 19.6125 62.338543Q19.628124 62.260418 19.659374 62.213543Q19.690624 62.166668 19.721874 62.135418Q19.76875 62.104168 19.815624 62.104168L21.39375 62.104168L21.39375 56.338543L19.925 57.213543Q19.815624 57.276043 19.7375 57.291668Q19.675 57.291668 19.628124 57.260418Q19.596874 57.213543 19.58125 57.135418Q19.565624 57.041668 19.565624 56.916668Q19.565624 56.807293 19.565624 56.744793Q19.58125 56.666668 19.596874 56.619793Q19.628124 56.572918 19.659374 56.541668Q19.690624 56.510418 19.7375 56.463543L21.4875 55.354168Q21.503124 55.338543 21.534374 55.322918Q21.58125 55.307293 21.628124 55.307293Q21.690624 55.291668 21.753124 55.291668Q21.83125 55.276043 21.925 55.276043Q22.065624 55.276043 22.159374 55.291668Q22.253124 55.307293 22.3 55.322918Q22.3625 55.338543 22.378124 55.385418Q22.39375 55.416668 22.39375 55.447918L22.39375 62.104168L23.76875 62.104168Q23.815624 62.104168 23.846874 62.135418Q23.89375 62.166668 23.925 62.213543Q23.95625 62.260418 23.971874 62.338543Q23.9875 62.416668 23.9875 62.510418ZM30.221874 59.104168Q30.221874 59.979168 30.08125 60.697918Q29.940624 61.416668 29.6125 61.947918Q29.3 62.463543 28.784374 62.744793Q28.26875 63.026043 27.51875 63.026043Q26.8 63.026043 26.3 62.776043Q25.815624 62.510418 25.51875 62.026043Q25.221874 61.526043 25.096874 60.807293Q24.971874 60.072918 24.971874 59.135418Q24.971874 58.276043 25.1125 57.557293Q25.253124 56.822918 25.565624 56.307293Q25.89375 55.791668 26.409374 55.510418Q26.925 55.229168 27.675 55.229168Q28.39375 55.229168 28.878124 55.479168Q29.3625 55.729168 29.659374 56.229168Q29.971874 56.729168 30.096874 57.447918Q30.221874 58.166668 30.221874 59.104168ZM29.190624 59.182293Q29.190624 58.604168 29.14375 58.166668Q29.096874 57.713543 29.01875 57.369793Q28.940624 57.010418 28.815624 56.760418Q28.690624 56.510418 28.51875 56.354168Q28.346874 56.197918 28.1125 56.119793Q27.89375 56.041668 27.6125 56.041668Q27.1125 56.041668 26.8 56.276043Q26.4875 56.510418 26.3 56.932293Q26.128124 57.338543 26.065624 57.885418Q26.003124 58.432293 26.003124 59.072918Q26.003124 59.916668 26.08125 60.510418Q26.175 61.104168 26.3625 61.479168Q26.565624 61.854168 26.8625 62.026043Q27.159374 62.197918 27.58125 62.197918Q27.909374 62.197918 28.14375 62.104168Q28.39375 61.994793 28.565624 61.807293Q28.753124 61.604168 28.8625 61.322918Q28.9875 61.041668 29.05 60.713543Q29.128124 60.385418 29.159374 59.994793Q29.190624 59.604168 29.190624 59.182293ZM36.221874 59.104168Q36.221874 59.979168 36.08125 60.697918Q35.940624 61.416668 35.6125 61.947918Q35.3 62.463543 34.784374 62.744793Q34.26875 63.026043 33.51875 63.026043Q32.8 63.026043 32.3 62.776043Q31.815624 62.510418 31.51875 62.026043Q31.221874 61.526043 31.096874 60.807293Q30.971874 60.072918 30.971874 59.135418Q30.971874 58.276043 31.1125 57.557293Q31.253124 56.822918 31.565624 56.307293Q31.89375 55.791668 32.409374 55.510418Q32.925 55.229168 33.675 55.229168Q34.39375 55.229168 34.878124 55.479168Q35.3625 55.729168 35.659374 56.229168Q35.971874 56.729168 36.096874 57.447918Q36.221874 58.166668 36.221874 59.104168ZM35.190624 59.182293Q35.190624 58.604168 35.14375 58.166668Q35.096874 57.713543 35.01875 57.369793Q34.940624 57.010418 34.815624 56.760418Q34.690624 56.510418 34.51875 56.354168Q34.346874 56.197918 34.1125 56.119793Q33.89375 56.041668 33.6125 56.041668Q33.1125 56.041668 32.8 56.276043Q32.4875 56.510418 32.3 56.932293Q32.128124 57.338543 32.065624 57.885418Q32.003124 58.432293 32.003124 59.072918Q32.003124 59.916668 32.08125 60.510418Q32.175 61.104168 32.3625 61.479168Q32.565624 61.854168 32.8625 62.026043Q33.159374 62.197918 33.58125 62.197918Q33.909374 62.197918 34.14375 62.104168Q34.39375 61.994793 34.565624 61.807293Q34.753124 61.604168 34.8625 61.322918Q34.9875 61.041668 35.05 60.713543Q35.128124 60.385418 35.159374 59.994793Q35.190624 59.604168 35.190624 59.182293ZM38.721874 62.072918Q38.721874 62.260418 38.70625 62.416668Q38.690624 62.557293 38.64375 62.697918Q38.6125 62.838543 38.534374 62.963543Q38.471874 63.104168 38.378124 63.244793L37.565624 64.44792Q37.534374 64.4948 37.503124 64.52605Q37.471874 64.5573 37.409374 64.57292Q37.346874 64.60417 37.26875 64.60417Q37.20625 64.6198 37.096874 64.6198Q37.003124 64.6198 36.925 64.60417Q36.8625 64.60417 36.83125 64.57292Q36.8 64.5573 36.8 64.52605Q36.8 64.4948 36.815624 64.44792L37.596874 62.822918L37.596874 62.072918Q37.596874 61.916668 37.628124 61.822918Q37.659374 61.729168 37.721874 61.682293Q37.8 61.635418 37.909374 61.619793Q38.01875 61.604168 38.175 61.604168Q38.315624 61.604168 38.409374 61.619793Q38.51875 61.635418 38.58125 61.682293Q38.659374 61.729168 38.690624 61.822918Q38.721874 61.916668 38.721874 62.072918ZM45.221874 59.104168Q45.221874 59.979168 45.08125 60.697918Q44.940624 61.416668 44.6125 61.947918Q44.3 62.463543 43.784374 62.744793Q43.26875 63.026043 42.51875 63.026043Q41.8 63.026043 41.3 62.776043Q40.815624 62.510418 40.51875 62.026043Q40.221874 61.526043 40.096874 60.807293Q39.971874 60.072918 39.971874 59.135418Q39.971874 58.276043 40.1125 57.557293Q40.253124 56.822918 40.565624 56.307293Q40.89375 55.791668 41.409374 55.510418Q41.925 55.229168 42.675 55.229168Q43.39375 55.229168 43.878124 55.479168Q44.3625 55.729168 44.659374 56.229168Q44.971874 56.729168 45.096874 57.447918Q45.221874 58.166668 45.221874 59.104168ZM44.190624 59.182293Q44.190624 58.604168 44.14375 58.166668Q44.096874 57.713543 44.01875 57.369793Q43.940624 57.010418 43.815624 56.760418Q43.690624 56.510418 43.51875 56.354168Q43.346874 56.197918 43.1125 56.119793Q42.89375 56.041668 42.6125 56.041668Q42.1125 56.041668 41.8 56.276043Q41.4875 56.510418 41.3 56.932293Q41.128124 57.338543 41.065624 57.885418Q41.003124 58.432293 41.003124 59.072918Q41.003124 59.916668 41.08125 60.510418Q41.175 61.104168 41.3625 61.479168Q41.565624 61.854168 41.8625 62.026043Q42.159374 62.197918 42.58125 62.197918Q42.909374 62.197918 43.14375 62.104168Q43.39375 61.994793 43.565624 61.807293Q43.753124 61.604168 43.8625 61.322918Q43.9875 61.041668 44.05 60.713543Q44.128124 60.385418 44.159374 59.994793Q44.190624 59.604168 44.190624 59.182293ZM51.221874 59.104168Q51.221874 59.979168 51.08125 60.697918Q50.940624 61.416668 50.6125 61.947918Q50.3 62.463543 49.784374 62.744793Q49.26875 63.026043 48.51875 63.026043Q47.8 63.026043 47.3 62.776043Q46.815624 62.510418 46.51875 62.026043Q46.221874 61.526043 46.096874 60.807293Q45.971874 60.072918 45.971874 59.135418Q45.971874 58.276043 46.1125 57.557293Q46.253124 56.822918 46.565624 56.307293Q46.89375 55.791668 47.409374 55.510418Q47.925 55.229168 48.675 55.229168Q49.39375 55.229168 49.878124 55.479168Q50.3625 55.729168 50.659374 56.229168Q50.971874 56.729168 51.096874 57.447918Q51.221874 58.166668 51.221874 59.104168ZM50.190624 59.182293Q50.190624 58.604168 50.14375 58.166668Q50.096874 57.713543 50.01875 57.369793Q49.940624 57.010418 49.815624 56.760418Q49.690624 56.510418 49.51875 56.354168Q49.346874 56.197918 49.1125 56.119793Q48.89375 56.041668 48.6125 56.041668Q48.1125 56.041668 47.8 56.276043Q47.4875 56.510418 47.3 56.932293Q47.128124 57.338543 47.065624 57.885418Q47.003124 58.432293 47.003124 59.072918Q47.003124 59.916668 47.08125 60.510418Q47.175 61.104168 47.3625 61.479168Q47.565624 61.854168 47.8625 62.026043Q48.159374 62.197918 48.58125 62.197918Q48.909374 62.197918 49.14375 62.104168Q49.39375 61.994793 49.565624 61.807293Q49.753124 61.604168 49.8625 61.322918Q49.9875 61.041668 50.05 60.713543Q50.128124 60.385418 50.159374 59.994793Q50.190624 59.604168 50.190624 59.182293ZM55.2375 57.197918Q55.2375 57.651043 55.128124 58.026043Q55.034374 58.385418 54.83125 58.651043Q54.628124 58.916668 54.315624 59.072918Q54.003124 59.213543 53.58125 59.213543Q53.14375 59.213543 52.83125 59.072918Q52.534374 58.932293 52.346874 58.682293Q52.159374 58.432293 52.065624 58.072918Q51.971874 57.697918 51.971874 57.229168Q51.971874 56.791668 52.065624 56.432293Q52.159374 56.072918 52.3625 55.807293Q52.565624 55.541668 52.878124 55.401043Q53.190624 55.244793 53.6125 55.244793Q54.08125 55.244793 54.39375 55.401043Q54.70625 55.557293 54.89375 55.822918Q55.08125 56.088543 55.159374 56.447918Q55.2375 56.807293 55.2375 57.197918ZM54.409374 57.229168Q54.409374 56.901043 54.3625 56.651043Q54.315624 56.401043 54.221874 56.229168Q54.128124 56.057293 53.971874 55.979168Q53.815624 55.885418 53.596874 55.885418Q53.39375 55.885418 53.2375 55.963543Q53.08125 56.041668 52.9875 56.213543Q52.89375 56.369793 52.846874 56.619793Q52.8 56.869793 52.8 57.197918Q52.8 57.588543 52.846874 57.854168Q52.909374 58.119793 53.003124 58.276043Q53.1125 58.432293 53.26875 58.494793Q53.425 58.557293 53.628124 58.557293Q53.8625 58.557293 54.003124 58.479168Q54.159374 58.385418 54.253124 58.213543Q54.346874 58.041668 54.378124 57.791668Q54.409374 57.541668 54.409374 57.229168ZM59.70625 60.994793Q59.70625 61.447918 59.596874 61.822918Q59.503124 62.182293 59.3 62.447918Q59.096874 62.713543 58.784374 62.869793Q58.471874 63.010418 58.05 63.010418Q57.6125 63.010418 57.3 62.869793Q57.003124 62.729168 56.815624 62.479168Q56.628124 62.229168 56.534374 61.869793Q56.440624 61.494793 56.440624 61.026043Q56.440624 60.588543 56.534374 60.229168Q56.628124 59.869793 56.83125 59.604168Q57.034374 59.338543 57.346874 59.197918Q57.659374 59.041668 58.08125 59.041668Q58.55 59.041668 58.8625 59.197918Q59.175 59.354168 59.3625 59.619793Q59.55 59.885418 59.628124 60.244793Q59.70625 60.604168 59.70625 60.994793ZM58.878124 61.026043Q58.878124 60.697918 58.83125 60.447918Q58.784374 60.197918 58.690624 60.026043Q58.596874 59.854168 58.440624 59.776043Q58.284374 59.682293 58.065624 59.682293Q57.8625 59.682293 57.70625 59.760418Q57.55 59.838543 57.45625 60.010418Q57.3625 60.166668 57.315624 60.416668Q57.26875 60.666668 57.26875 60.994793Q57.26875 61.385418 57.315624 61.651043Q57.378124 61.916668 57.471874 62.072918Q57.58125 62.229168 57.7375 62.291668Q57.89375 62.354168 58.096874 62.354168Q58.33125 62.354168 58.471874 62.276043Q58.628124 62.182293 58.721874 62.010418Q58.815624 61.838543 58.846874 61.588543Q58.878124 61.338543 58.878124 61.026043ZM53.58125 62.963543Q53.55 63.010418 53.503124 63.041668Q53.471874 63.072918 53.409374 63.088543Q53.3625 63.104168 53.26875 63.119793Q53.190624 63.135418 53.08125 63.135418Q52.940624 63.135418 52.8625 63.104168Q52.784374 63.088543 52.753124 63.041668Q52.721874 63.010418 52.721874 62.947918Q52.7375 62.885418 52.784374 62.822918L58.065624 55.276043Q58.096874 55.229168 58.128124 55.197918Q58.175 55.151043 58.2375 55.135418Q58.3 55.119793 58.378124 55.119793Q58.45625 55.104168 58.58125 55.104168Q58.70625 55.104168 58.784374 55.135418Q58.8625 55.151043 58.89375 55.197918Q58.925 55.229168 58.909374 55.291668Q58.909374 55.338543 58.8625 55.416668L53.58125 62.963543Z" fill-rule="nonzero"/><path fill="#000000" d="M148.87015 349.0125Q148.87015 349.1219 148.85452 349.2Q148.8389 349.27814 148.80765 349.34064Q148.7764 349.40314 148.72952 349.4344Q148.69827 349.45 148.63577 349.45L144.44827 349.45Q144.37015 349.45 144.30765 349.4344Q144.24515 349.40314 144.19827 349.35626Q144.1514 349.3094 144.13577 349.23126Q144.12015 349.1375 144.12015 349.0125Q144.12015 348.8875 144.12015 348.8094Q144.13577 348.71564 144.16702 348.65314Q144.19827 348.575 144.22952 348.5125Q144.2764 348.45 144.35452 348.3719L145.82327 346.8094Q146.3389 346.27814 146.63577 345.85626Q146.94827 345.41876 147.10452 345.075Q147.2764 344.71564 147.32327 344.4344Q147.38577 344.1375 147.38577 343.8875Q147.38577 343.6375 147.30765 343.41876Q147.22952 343.1844 147.07327 343.0125Q146.91702 342.84064 146.68265 342.7469Q146.44827 342.65314 146.13577 342.65314Q145.7764 342.65314 145.49515 342.7469Q145.2139 342.84064 144.99515 342.96564Q144.79202 343.075 144.63577 343.1844Q144.49515 343.27814 144.43265 343.27814Q144.38577 343.27814 144.35452 343.2625Q144.32327 343.23126 144.29202 343.1844Q144.2764 343.1219 144.26077 343.04376Q144.26077 342.95 144.26077 342.825Q144.26077 342.7469 144.26077 342.6844Q144.2764 342.60626 144.2764 342.5594Q144.29202 342.5125 144.30765 342.48126Q144.3389 342.4344 144.4014 342.3719Q144.47952 342.3094 144.6514 342.21564Q144.8389 342.10626 145.0889 342.0125Q145.35452 341.90314 145.66702 341.84064Q145.97952 341.7625 146.32327 341.7625Q146.87015 341.7625 147.2764 341.91876Q147.69827 342.0594 147.9639 342.34064Q148.24515 342.60626 148.37015 342.96564Q148.51077 343.325 148.51077 343.73126Q148.51077 344.09064 148.44827 344.45Q148.38577 344.8094 148.18265 345.23126Q147.97952 345.65314 147.57327 346.16876Q147.18265 346.66876 146.54202 347.34064L145.3389 348.59064L148.63577 348.59064Q148.68265 348.59064 148.72952 348.6219Q148.7764 348.65314 148.80765 348.7Q148.8389 348.7469 148.85452 348.825Q148.87015 348.90314 148.87015 349.0125Z" fill-rule="nonzero"/><path fill="#000000" d="M267.23798 349.0125Q267.23798 349.1219 267.22235 349.2Q267.20673 349.27814 267.17548 349.34064Q267.14423 349.40314 267.09735 349.4344Q267.0661 349.45 267.0036 349.45L262.8161 349.45Q262.73798 349.45 262.67548 349.4344Q262.61298 349.40314 262.5661 349.35626Q262.51923 349.3094 262.5036 349.23126Q262.48798 349.1375 262.48798 349.0125Q262.48798 348.8875 262.48798 348.8094Q262.5036 348.71564 262.53485 348.65314Q262.5661 348.575 262.59735 348.5125Q262.64423 348.45 262.72235 348.3719L264.1911 346.8094Q264.70673 346.27814 265.0036 345.85626Q265.3161 345.41876 265.47235 345.075Q265.64423 344.71564 265.6911 344.4344Q265.7536 344.1375 265.7536 343.8875Q265.7536 343.6375 265.67548 343.41876Q265.59735 343.1844 265.4411 343.0125Q265.28485 342.84064 265.05048 342.7469Q264.8161 342.65314 264.5036 342.65314Q264.14423 342.65314 263.86298 342.7469Q263.58173 342.84064 263.36298 342.96564Q263.15985 343.075 263.0036 343.1844Q262.86298 343.27814 262.80048 343.27814Q262.7536 343.27814 262.72235 343.2625Q262.6911 343.23126 262.65985 343.1844Q262.64423 343.1219 262.6286 343.04376Q262.6286 342.95 262.6286 342.825Q262.6286 342.7469 262.6286 342.6844Q262.64423 342.60626 262.64423 342.5594Q262.65985 342.5125 262.67548 342.48126Q262.70673 342.4344 262.76923 342.3719Q262.84735 342.3094 263.01923 342.21564Q263.20673 342.10626 263.45673 342.0125Q263.72235 341.90314 264.03485 341.84064Q264.34735 341.7625 264.6911 341.7625Q265.23798 341.7625 265.64423 341.91876Q266.0661 342.0594 266.33173 342.34064Q266.61298 342.60626 266.73798 342.96564Q266.8786 343.325 266.8786 343.73126Q266.8786 344.09064 266.8161 344.45Q266.7536 344.8094 266.55048 345.23126Q266.34735 345.65314 265.9411 346.16876Q265.55048 346.66876 264.90985 347.34064L263.70673 348.59064L267.0036 348.59064Q267.05048 348.59064 267.09735 348.6219Q267.14423 348.65314 267.17548 348.7Q267.20673 348.7469 267.22235 348.825Q267.23798 348.90314 267.23798 349.0125Z" fill-rule="nonzero"/><path fill="#000000" d="M385.54327 347.27814Q385.54327 347.8094 385.35577 348.23126Q385.1839 348.6375 384.84015 348.9344Q384.4964 349.23126 383.9964 349.40314Q383.4964 349.5594 382.8714 349.5594Q382.4964 349.5594 382.15265 349.4969Q381.82452 349.4344 381.5589 349.35626Q381.3089 349.2625 381.13702 349.1844Q380.98077 349.09064 380.9339 349.04376Q380.88702 348.9969 380.85577 348.96564Q380.84015 348.91876 380.82452 348.8719Q380.8089 348.8094 380.79327 348.73126Q380.79327 348.6375 380.79327 348.5125Q380.79327 348.29376 380.82452 348.21564Q380.8714 348.1375 380.94952 348.1375Q380.9964 348.1375 381.15265 348.23126Q381.3089 348.325 381.54327 348.4344Q381.79327 348.54376 382.1214 348.6375Q382.44952 348.73126 382.84015 348.73126Q383.23077 348.73126 383.52765 348.6375Q383.82452 348.52814 384.01202 348.35626Q384.21515 348.16876 384.3089 347.91876Q384.41827 347.66876 384.41827 347.3719Q384.41827 347.0594 384.29327 346.8094Q384.16827 346.54376 383.91827 346.35626Q383.6839 346.16876 383.32452 346.075Q382.96515 345.96564 382.51202 345.96564L381.79327 345.96564Q381.7464 345.96564 381.69952 345.95Q381.66827 345.91876 381.6214 345.8719Q381.59015 345.825 381.57452 345.7469Q381.5589 345.66876 381.5589 345.5594Q381.5589 345.4344 381.57452 345.3719Q381.59015 345.29376 381.6214 345.2469Q381.65265 345.2 381.6839 345.1844Q381.73077 345.16876 381.79327 345.16876L382.44952 345.16876Q382.84015 345.16876 383.13702 345.075Q383.44952 344.96564 383.66827 344.77814Q383.88702 344.59064 383.9964 344.34064Q384.10577 344.075 384.10577 343.7469Q384.10577 343.5125 384.02765 343.3094Q383.96515 343.09064 383.8089 342.9344Q383.65265 342.7625 383.41827 342.6844Q383.1839 342.59064 382.8714 342.59064Q382.52765 342.59064 382.2464 342.7Q381.96515 342.79376 381.73077 342.91876Q381.51202 343.02814 381.35577 343.1375Q381.21515 343.23126 381.16827 343.23126Q381.1214 343.23126 381.09015 343.21564Q381.0589 343.2 381.02765 343.16876Q381.01202 343.1219 380.9964 343.04376Q380.9964 342.95 380.9964 342.825Q380.9964 342.7469 380.9964 342.6844Q381.01202 342.60626 381.02765 342.5594Q381.04327 342.5125 381.0589 342.46564Q381.09015 342.41876 381.13702 342.3719Q381.19952 342.3094 381.3714 342.21564Q381.54327 342.10626 381.79327 342.0125Q382.04327 341.90314 382.3714 341.84064Q382.69952 341.7625 383.07452 341.7625Q383.59015 341.7625 383.98077 341.90314Q384.38702 342.02814 384.65265 342.27814Q384.91827 342.5125 385.04327 342.85626Q385.1839 343.2 385.1839 343.6219Q385.1839 343.98126 385.09015 344.29376Q384.9964 344.59064 384.8089 344.825Q384.63702 345.0594 384.3714 345.23126Q384.10577 345.40314 383.76202 345.46564L383.76202 345.48126Q384.15265 345.5125 384.48077 345.66876Q384.8089 345.825 385.04327 346.0594Q385.27765 346.29376 385.40265 346.60626Q385.54327 346.91876 385.54327 347.27814Z" fill-rule="nonzero"/><path fill="#000000" d="M503.9111 347.27814Q503.9111 347.8094 503.7236 348.23126Q503.55173 348.6375 503.20798 348.9344Q502.86423 349.23126 502.36423 349.40314Q501.86423 349.5594 501.23923 349.5594Q500.86423 349.5594 500.52048 349.4969Q500.19235 349.4344 499.92673 349.35626Q499.67673 349.2625 499.50485 349.1844Q499.3486 349.09064 499.30173 349.04376Q499.25485 348.9969 499.2236 348.96564Q499.20798 348.91876 499.19235 348.8719Q499.17673 348.8094 499.1611 348.73126Q499.1611 348.6375 499.1611 348.5125Q499.1611 348.29376 499.19235 348.21564Q499.23923 348.1375 499.31735 348.1375Q499.36423 348.1375 499.52048 348.23126Q499.67673 348.325 499.9111 348.4344Q500.1611 348.54376 500.48923 348.6375Q500.81735 348.73126 501.20798 348.73126Q501.5986 348.73126 501.89548 348.6375Q502.19235 348.52814 502.37985 348.35626Q502.58298 348.16876 502.67673 347.91876Q502.7861 347.66876 502.7861 347.3719Q502.7861 347.0594 502.6611 346.8094Q502.5361 346.54376 502.2861 346.35626Q502.05173 346.16876 501.69235 346.075Q501.33298 345.96564 500.87985 345.96564L500.1611 345.96564Q500.11423 345.96564 500.06735 345.95Q500.0361 345.91876 499.98923 345.8719Q499.95798 345.825 499.94235 345.7469Q499.92673 345.66876 499.92673 345.5594Q499.92673 345.4344 499.94235 345.3719Q499.95798 345.29376 499.98923 345.2469Q500.02048 345.2 500.05173 345.1844Q500.0986 345.16876 500.1611 345.16876L500.81735 345.16876Q501.20798 345.16876 501.50485 345.075Q501.81735 344.96564 502.0361 344.77814Q502.25485 344.59064 502.36423 344.34064Q502.4736 344.075 502.4736 343.7469Q502.4736 343.5125 502.39548 343.3094Q502.33298 343.09064 502.17673 342.9344Q502.02048 342.7625 501.7861 342.6844Q501.55173 342.59064 501.23923 342.59064Q500.89548 342.59064 500.61423 342.7Q500.33298 342.79376 500.0986 342.91876Q499.87985 343.02814 499.7236 343.1375Q499.58298 343.23126 499.5361 343.23126Q499.48923 343.23126 499.45798 343.21564Q499.42673 343.2 499.39548 343.16876Q499.37985 343.1219 499.36423 343.04376Q499.36423 342.95 499.36423 342.825Q499.36423 342.7469 499.36423 342.6844Q499.37985 342.60626 499.39548 342.5594Q499.4111 342.5125 499.42673 342.46564Q499.45798 342.41876 499.50485 342.3719Q499.56735 342.3094 499.73923 342.21564Q499.9111 342.10626 500.1611 342.0125Q500.4111 341.90314 500.73923 341.84064Q501.06735 341.7625 501.44235 341.7625Q501.95798 341.7625 502.3486 341.90314Q502.75485 342.02814 503.02048 342.27814Q503.2861 342.5125 503.4111 342.85626Q503.55173 343.2 503.55173 343.6219Q503.55173 343.98126 503.45798 344.29376Q503.36423 344.59064 503.17673 344.825Q503.00485 345.0594 502.73923 345.23126Q502.4736 345.40314 502.12985 345.46564L502.12985 345.48126Q502.52048 345.5125 502.8486 345.66876Q503.17673 345.825 503.4111 346.0594Q503.64548 346.29376 503.77048 346.60626Q503.9111 346.91876 503.9111 347.27814Z" fill-rule="nonzero"/><path fill="#000000" d="M27.721874 23.003124L27.721874 27.58125L27.3625 27.58125Q27.190624 26.26875 26.721874 25.4875Q26.26875 24.70625 25.425 24.253124Q24.596874 23.784374 23.690624 23.784374Q22.675 23.784374 22.003124 24.409374Q21.346874 25.01875 21.346874 25.815624Q21.346874 26.425 21.76875 26.925Q22.378124 27.659374 24.659374 28.878124Q26.503124 29.8625 27.175 30.409374Q27.8625 30.940624 28.221874 31.659374Q28.596874 32.378124 28.596874 33.175Q28.596874 34.675 27.425 35.76875Q26.26875 36.846874 24.425 36.846874Q23.846874 36.846874 23.346874 36.76875Q23.05 36.721874 22.096874 36.409374Q21.14375 36.096874 20.878124 36.096874Q20.64375 36.096874 20.503124 36.253124Q20.3625 36.39375 20.284374 36.846874L19.925 36.846874L19.925 32.315624L20.284374 32.315624Q20.55 33.7375 20.971874 34.45625Q21.409374 35.159374 22.284374 35.628124Q23.175 36.096874 24.221874 36.096874Q25.440624 36.096874 26.14375 35.45625Q26.8625 34.8 26.8625 33.925Q26.8625 33.440624 26.596874 32.940624Q26.33125 32.440624 25.753124 32.003124Q25.378124 31.721874 23.675 30.76875Q21.971874 29.815624 21.253124 29.253124Q20.55 28.675 20.175 28.003124Q19.8 27.315624 19.8 26.4875Q19.8 25.065624 20.89375 24.034374Q21.9875 23.003124 23.675 23.003124Q24.7375 23.003124 25.909374 23.51875Q26.45625 23.76875 26.690624 23.76875Q26.940624 23.76875 27.096874 23.6125Q27.26875 23.45625 27.3625 23.003124L27.721874 23.003124ZM32.45625 22.659374Q32.8625 22.659374 33.14375 22.95625Q33.440624 23.2375 33.440624 23.64375Q33.440624 24.065624 33.14375 24.3625Q32.8625 24.64375 32.45625 24.64375Q32.034374 24.64375 31.7375 24.3625Q31.45625 24.065624 31.45625 23.64375Q31.45625 23.2375 31.7375 22.95625Q32.034374 22.659374 32.45625 22.659374ZM33.26875 27.346874L33.26875 34.534374Q33.26875 35.3625 33.378124 35.64375Q33.503124 35.925 33.7375 36.065624Q33.9875 36.190624 34.6125 36.190624L34.6125 36.55L30.26875 36.55L30.26875 36.190624Q30.925 36.190624 31.14375 36.065624Q31.378124 35.940624 31.503124 35.659374Q31.64375 35.3625 31.64375 34.534374L31.64375 31.08125Q31.64375 29.628124 31.55 29.190624Q31.4875 28.878124 31.33125 28.76875Q31.190624 28.64375 30.940624 28.64375Q30.659374 28.64375 30.26875 28.784374L30.14375 28.440624L32.83125 27.346874L33.26875 27.346874ZM38.784374 29.2375Q40.3625 27.346874 41.784374 27.346874Q42.51875 27.346874 43.034374 27.70625Q43.565624 28.065624 43.878124 28.909374Q44.096874 29.503124 44.096874 30.70625L44.096874 34.534374Q44.096874 35.378124 44.2375 35.675Q44.346874 35.925 44.58125 36.065624Q44.815624 36.190624 45.45625 36.190624L45.45625 36.55L41.034374 36.55L41.034374 36.190624L41.221874 36.190624Q41.846874 36.190624 42.096874 36.003124Q42.346874 35.815624 42.440624 35.440624Q42.4875 35.3 42.4875 34.534374L42.4875 30.8625Q42.4875 29.64375 42.159374 29.096874Q41.846874 28.534374 41.096874 28.534374Q39.940624 28.534374 38.784374 29.815624L38.784374 34.534374Q38.784374 35.440624 38.89375 35.64375Q39.034374 35.940624 39.26875 36.065624Q39.503124 36.190624 40.2375 36.190624L40.2375 36.55L35.815624 36.55L35.815624 36.190624L36.003124 36.190624Q36.690624 36.190624 36.925 35.846874Q37.175 35.503124 37.175 34.534374L37.175 31.20625Q37.175 29.596874 37.096874 29.253124Q37.01875 28.89375 36.8625 28.76875Q36.721874 28.64375 36.471874 28.64375Q36.190624 28.64375 35.815624 28.784374L35.675 28.440624L38.3625 27.346874L38.784374 27.346874L38.784374 29.2375ZM61.128124 23.3L61.26875 26.409374L60.89375 26.409374Q60.784374 25.596874 60.6125 25.2375Q60.3 24.675 59.8 24.409374Q59.3 24.14375 58.471874 24.14375L56.6125 24.14375L56.6125 34.253124Q56.6125 35.471874 56.878124 35.784374Q57.253124 36.190624 58.01875 36.190624L58.471874 36.190624L58.471874 36.55L52.8625 36.55L52.8625 36.190624L53.33125 36.190624Q54.175 36.190624 54.51875 35.675Q54.7375 35.3625 54.7375 34.253124L54.7375 24.14375L53.14375 24.14375Q52.221874 24.14375 51.83125 24.26875Q51.315624 24.45625 50.95625 24.9875Q50.596874 25.51875 50.534374 26.409374L50.159374 26.409374L50.315624 23.3L61.128124 23.3ZM64.8 27.346874L64.8 29.346874Q65.90938 27.346874 67.09688 27.346874Q67.62813 27.346874 67.97188 27.675Q68.33125 27.9875 68.33125 28.425Q68.33125 28.8 68.08125 29.065624Q67.83125 29.33125 67.47188 29.33125Q67.14375 29.33125 66.70625 29.003124Q66.28438 28.659374 66.08125 28.659374Q65.90938 28.659374 65.70625 28.846874Q65.26875 29.253124 64.8 30.175L64.8 34.45625Q64.8 35.20625 64.97188 35.58125Q65.1125 35.846874 65.425 36.01875Q65.75313 36.190624 66.3625 36.190624L66.3625 36.55L61.76875 36.55L61.76875 36.190624Q62.45625 36.190624 62.784374 35.9875Q63.034374 35.83125 63.128124 35.4875Q63.175 35.315624 63.175 34.534374L63.175 31.065624Q63.175 29.503124 63.1125 29.20625Q63.05 28.909374 62.878124 28.784374Q62.70625 28.64375 62.45625 28.64375Q62.159374 28.64375 61.76875 28.784374L61.675 28.440624L64.37813 27.346874L64.8 27.346874ZM74.2375 35.253124Q72.8625 36.33125 72.51875 36.4875Q71.9875 36.7375 71.39375 36.7375Q70.47188 36.7375 69.8625 36.1125Q69.26875 35.471874 69.26875 34.425Q69.26875 33.76875 69.55 33.3Q69.95625 32.628124 70.94063 32.05Q71.94063 31.45625 74.2375 30.628124L74.2375 30.26875Q74.2375 28.925 73.81563 28.440624Q73.39375 27.940624 72.58125 27.940624Q71.97188 27.940624 71.6125 28.26875Q71.2375 28.596874 71.2375 29.034374L71.25313 29.596874Q71.25313 30.05 71.01875 30.3Q70.8 30.534374 70.425 30.534374Q70.06563 30.534374 69.83125 30.284374Q69.6125 30.01875 69.6125 29.58125Q69.6125 28.753124 70.47188 28.05Q71.33125 27.346874 72.87813 27.346874Q74.06563 27.346874 74.83125 27.7375Q75.40938 28.05 75.675 28.690624Q75.8625 29.1125 75.8625 30.409374L75.8625 33.440624Q75.8625 34.721874 75.90938 35.01875Q75.95625 35.3 76.06563 35.39375Q76.175 35.4875 76.33125 35.4875Q76.4875 35.4875 76.59688 35.425Q76.8 35.3 77.39375 34.70625L77.39375 35.253124Q76.3 36.721874 75.3 36.721874Q74.81563 36.721874 74.53438 36.39375Q74.25313 36.065624 74.2375 35.253124ZM74.2375 34.628124L74.2375 31.221874Q72.76875 31.8 72.34688 32.05Q71.56563 32.471874 71.2375 32.940624Q70.90938 33.409374 70.90938 33.971874Q70.90938 34.675 71.31563 35.14375Q71.7375 35.596874 72.28438 35.596874Q73.03438 35.596874 74.2375 34.628124ZM83.95625 27.346874L83.95625 30.39375L83.62813 30.39375Q83.26875 28.95625 82.675 28.440624Q82.09688 27.909374 81.20625 27.909374Q80.51875 27.909374 80.09688 28.284374Q79.675 28.64375 79.675 29.08125Q79.675 29.628124 79.9875 30.01875Q80.3 30.409374 81.22188 30.8625L82.64375 31.565624Q84.62813 32.51875 84.62813 34.1125Q84.62813 35.33125 83.70625 36.08125Q82.78438 36.83125 81.64375 36.83125Q80.81563 36.83125 79.76875 36.534374Q79.44063 36.425 79.2375 36.425Q79.01875 36.425 78.89375 36.690624L78.56563 36.690624L78.56563 33.4875L78.89375 33.4875Q79.15938 34.8625 79.925 35.565624Q80.70625 36.253124 81.65938 36.253124Q82.33125 36.253124 82.75313 35.8625Q83.19063 35.45625 83.19063 34.89375Q83.19063 34.221874 82.70625 33.76875Q82.2375 33.3 80.81563 32.596874Q79.40938 31.89375 78.97188 31.33125Q78.53438 30.784374 78.53438 29.925Q78.53438 28.83125 79.28438 28.096874Q80.03438 27.346874 81.2375 27.346874Q81.76875 27.346874 82.51875 27.565624Q83.01875 27.70625 83.19063 27.70625Q83.34688 27.70625 83.425 27.64375Q83.51875 27.58125 83.62813 27.346874L83.95625 27.346874ZM89.25313 22.659374L89.25313 34.534374Q89.25313 35.3625 89.37813 35.64375Q89.50313 35.909374 89.75313 36.05Q90.00313 36.190624 90.69063 36.190624L90.69063 36.55L86.31563 36.55L86.31563 36.190624Q86.925 36.190624 87.14375 36.065624Q87.37813 35.940624 87.50313 35.659374Q87.62813 35.3625 87.62813 34.534374L87.62813 26.409374Q87.62813 24.89375 87.55 24.55Q87.4875 24.190624 87.33125 24.065624Q87.19063 23.940624 86.95625 23.940624Q86.70625 23.940624 86.31563 24.096874L86.14375 23.753124L88.81563 22.659374L89.25313 22.659374ZM97.2375 35.253124Q95.8625 36.33125 95.51875 36.4875Q94.9875 36.7375 94.39375 36.7375Q93.47188 36.7375 92.8625 36.1125Q92.26875 35.471874 92.26875 34.425Q92.26875 33.76875 92.55 33.3Q92.95625 32.628124 93.94063 32.05Q94.94063 31.45625 97.2375 30.628124L97.2375 30.26875Q97.2375 28.925 96.81563 28.440624Q96.39375 27.940624 95.58125 27.940624Q94.97188 27.940624 94.6125 28.26875Q94.2375 28.596874 94.2375 29.034374L94.25313 29.596874Q94.25313 30.05 94.01875 30.3Q93.8 30.534374 93.425 30.534374Q93.06563 30.534374 92.83125 30.284374Q92.6125 30.01875 92.6125 29.58125Q92.6125 28.753124 93.47188 28.05Q94.33125 27.346874 95.87813 27.346874Q97.06563 27.346874 97.83125 27.7375Q98.40938 28.05 98.675 28.690624Q98.8625 29.1125 98.8625 30.409374L98.8625 33.440624Q98.8625 34.721874 98.90938 35.01875Q98.95625 35.3 99.06563 35.39375Q99.175 35.4875 99.33125 35.4875Q99.4875 35.4875 99.59688 35.425Q99.8 35.3 100.39375 34.70625L100.39375 35.253124Q99.3 36.721874 98.3 36.721874Q97.81563 36.721874 97.53438 36.39375Q97.25313 36.065624 97.2375 35.253124ZM97.2375 34.628124L97.2375 31.221874Q95.76875 31.8 95.34688 32.05Q94.56563 32.471874 94.2375 32.940624Q93.90938 33.409374 93.90938 33.971874Q93.90938 34.675 94.31563 35.14375Q94.7375 35.596874 95.28438 35.596874Q96.03438 35.596874 97.2375 34.628124ZM100.53438 28.4875L103.28438 27.378124L103.65938 27.378124L103.65938 29.471874Q104.34688 28.284374 105.05 27.815624Q105.75313 27.346874 106.51875 27.346874Q107.8625 27.346874 108.76875 28.39375Q109.8625 29.690624 109.8625 31.753124Q109.8625 34.065624 108.53438 35.58125Q107.44063 36.83125 105.78438 36.83125Q105.06563 36.83125 104.53438 36.6125Q104.14375 36.471874 103.65938 36.034374L103.65938 38.753124Q103.65938 39.675 103.76875 39.925Q103.87813 40.175 104.15938 40.315624Q104.44063 40.471874 105.175 40.471874L105.175 40.83125L100.4875 40.83125L100.4875 40.471874L100.72188 40.471874Q101.26875 40.471874 101.64375 40.26875Q101.83125 40.159374 101.925 39.909374Q102.03438 39.675 102.03438 38.70625L102.03438 30.2375Q102.03438 29.378124 101.95625 29.14375Q101.87813 28.909374 101.70625 28.8Q101.53438 28.675 101.2375 28.675Q101.00313 28.675 100.64375 28.8L100.53438 28.4875ZM103.65938 30.05L103.65938 33.378124Q103.65938 34.471874 103.7375 34.815624Q103.87813 35.378124 104.40938 35.815624Q104.94063 36.2375 105.75313 36.2375Q106.7375 36.2375 107.33125 35.471874Q108.12813 34.471874 108.12813 32.675Q108.12813 30.628124 107.2375 29.51875Q106.6125 28.753124 105.75313 28.753124Q105.28438 28.753124 104.81563 28.9875Q104.47188 29.159374 103.65938 30.05ZM112.675 30.971874Q112.675 32.971874 113.64375 34.096874Q114.62813 35.2375 115.94063 35.2375Q116.81563 35.2375 117.45625 34.753124Q118.1125 34.26875 118.56563 33.096874L118.8625 33.284374Q118.65938 34.628124 117.675 35.7375Q116.69063 36.83125 115.20625 36.83125Q113.58125 36.83125 112.44063 35.58125Q111.3 34.315624 111.3 32.190624Q111.3 29.89375 112.47188 28.6125Q113.64375 27.33125 115.425 27.33125Q116.925 27.33125 117.89375 28.33125Q118.8625 29.315624 118.8625 30.971874L112.675 30.971874ZM112.675 30.409374L116.81563 30.409374Q116.76875 29.55 116.6125 29.190624Q116.37813 28.64375 115.89375 28.33125Q115.40938 28.01875 114.87813 28.01875Q114.06563 28.01875 113.425 28.659374Q112.78438 29.284374 112.675 30.409374Z" fill-rule="nonzero"/></svg>